<svg xmlns="http://www.w3.org/2000/svg" width="44.435" height="25.177" viewBox="0 0 44.435 25.177">
  <g id="Group_97" data-name="Group 97" transform="translate(-90.935 -594.651)" opacity="0.6">
    <g id="Rectangle_72" data-name="Rectangle 72" transform="translate(122.781 594.651) rotate(45)" fill="none" stroke="#bd3133" stroke-width="1" opacity="0.801">
      <rect width="17.803" height="17.803" stroke="none"/>
      <rect x="0.5" y="0.5" width="16.803" height="16.803" fill="none"/>
    </g>
    <path id="Path_403" data-name="Path 403" d="M13.46,90.771,8.127,85.438a.355.355,0,0,0-.5.5l4.726,4.726H-22.644a.355.355,0,0,0-.356.356.355.355,0,0,0,.356.356H12.35L7.624,96.1a.355.355,0,1,0,.5.5l5.333-5.333A.355.355,0,0,0,13.46,90.771Z" transform="translate(113.935 516.359)" fill="#0d4c90"/>
  </g>
</svg>
